<svg xmlns="http://www.w3.org/2000/svg" viewBox="0 0 80 88"><path d="M22.71,69.58a1.79,1.79,0,0,0,1.78,1.62h31a1.7,1.7,0,1,0,0-3.4h-31A1.87,1.87,0,0,0,22.71,69.58Zm1.78-8.74a1.7,1.7,0,1,0,0,3.4h31a1.7,1.7,0,1,0,0-3.4Zm-3.67-6.77H59.18V78H20.82Zm42-17.64a2.29,2.29,0,1,0,2.33,2.28A2.31,2.31,0,0,0,62.82,36.43Zm-6.35,0a2.29,2.29,0,1,0,2.34,2.28A2.31,2.31,0,0,0,56.47,36.43ZM13.89,31.54H66.08a4.39,4.39,0,0,1,4.52,4.33v20a4.39,4.39,0,0,1-4.52,4.33h-3.5V52.37a1.77,1.77,0,0,0-1.7-1.7H19.12a1.83,1.83,0,0,0-1.7,1.7v7.81H13.89A4.36,4.36,0,0,1,9.4,55.85v-20a4.36,4.36,0,0,1,4.49-4.33ZM20.82,10H59.18V28.14H20.82Zm-3.4-1.7V28.14H13.89A7.83,7.83,0,0,0,6,35.87v20a7.83,7.83,0,0,0,7.89,7.73h3.53V79.7a1.77,1.77,0,0,0,1.7,1.7H60.88a1.77,1.77,0,0,0,1.7-1.7V63.58h3.5A7.85,7.85,0,0,0,74,55.85v-20a7.85,7.85,0,0,0-7.92-7.73h-3.5V8.3a1.77,1.77,0,0,0-1.7-1.7H19.12A1.84,1.84,0,0,0,17.42,8.3Z"/></svg>